<?xml version="1.0" standalone="no"?>
<!DOCTYPE svg PUBLIC "-//W3C//DTD SVG 20010904//EN"
 "http://www.w3.org/TR/2001/REC-SVG-20010904/DTD/svg10.dtd">
<svg version="1.0" xmlns="http://www.w3.org/2000/svg"
 width="300.000000pt" height="300.000000pt" viewBox="0 0 300.000000 300.000000"
 preserveAspectRatio="xMidYMid meet">
<metadata>
Created by potrace 1.10, written by Peter Selinger 2001-2011
</metadata>
<g transform="translate(0.000000,300.000000) scale(0.100000,-0.100000)"
fill="#000000" stroke="none">
<path d="M1122 2992 c-26 -4 -947 -320 -1029 -353 -57 -23 -78 -46 -85 -98
l-5 -33 41 44 c35 38 54 48 131 73 189 59 916 314 945 331 29 18 31 18 60 0
17 -9 83 -35 148 -56 64 -22 221 -76 347 -121 127 -44 289 -100 361 -124 175
-57 200 -70 213 -107 14 -39 14 -427 1 -448 -6 -10 -10 52 -10 185 0 263 -2
267 -140 226 -36 -11 -171 -56 -300 -101 -404 -139 -465 -160 -475 -159 -13 1
52 24 400 143 282 97 296 102 349 127 37 18 54 53 35 75 -17 20 -93 54 -203
90 -98 32 -87 33 -271 -33 -343 -123 -713 -268 -732 -286 -33 -30 -28 -53 15
-81 43 -28 189 -76 232 -76 15 0 57 9 92 20 72 23 75 23 63 11 -6 -5 -27 -14
-48 -21 -21 -6 -51 -23 -67 -37 l-30 -25 0 -204 c0 -129 -4 -204 -10 -204 -6
0 -10 74 -10 203 l0 203 -27 26 c-27 26 -251 108 -294 108 -10 0 -28 -9 -39
-20 -19 -19 -20 -33 -20 -225 0 -192 -1 -206 -20 -225 -30 -30 -47 -25 -108
35 -62 61 -78 65 -140 35 -51 -25 -57 -25 -82 0 -19 19 -20 33 -20 269 l0 249
-24 29 c-19 22 -50 38 -124 61 -120 39 -144 40 -166 7 -14 -22 -16 -93 -16
-679 l0 -656 27 -29 c16 -17 53 -39 83 -49 30 -11 196 -69 368 -128 172 -60
309 -110 304 -112 -4 -1 -93 27 -198 63 -104 37 -196 68 -204 70 -8 2 -67 22
-130 45 -63 23 -139 49 -168 57 -37 12 -65 29 -96 61 -43 44 -44 44 -39 16 7
-45 25 -74 54 -90 41 -21 1068 -374 1088 -374 15 0 91 24 142 44 12 6 18 -6
28 -60 39 -214 179 -422 367 -544 124 -81 292 -136 394 -128 l45 3 -65 21
c-36 12 -92 29 -125 39 -287 82 -493 292 -564 574 -22 89 -49 131 -86 131 -11
0 -46 -9 -77 -20 l-57 -20 -133 45 c-169 57 -162 55 -156 60 3 3 51 -11 107
-30 56 -19 107 -35 114 -35 8 0 23 10 35 23 21 22 22 32 22 230 0 131 4 207
10 207 6 0 10 -75 10 -204 0 -201 0 -205 24 -232 22 -26 25 -27 63 -16 66 20
90 55 102 149 40 321 240 571 538 674 78 27 91 23 18 -5 -223 -86 -380 -227
-474 -428 -56 -118 -74 -215 -68 -358 7 -170 44 -284 137 -420 38 -55 135
-153 200 -202 49 -36 163 -92 235 -114 86 -26 344 -27 430 -1 63 19 203 90
245 123 235 187 343 419 327 697 -12 209 -96 381 -259 531 -80 75 -122 102
-236 153 -42 19 -63 32 -47 28 66 -14 211 -94 283 -157 133 -115 202 -231 258
-429 42 -152 53 -172 54 -98 1 163 -101 381 -244 522 -108 107 -283 204 -405
223 l-41 7 0 429 c0 473 -1 483 -61 513 -39 21 -1028 361 -1064 367 -16 2 -41
3 -53 0z m835 -369 c131 -43 170 -63 126 -63 -9 0 -219 -70 -467 -156 -248
-86 -455 -157 -461 -157 -15 -2 -255 77 -255 84 0 3 17 11 38 17 20 7 222 81
447 166 226 85 414 155 420 155 5 1 74 -20 152 -46z m-1724 -168 l117 -40 0
-263 0 -264 29 -29 c37 -37 80 -38 140 -4 l43 25 21 -27 c55 -71 84 -93 125
-93 33 0 45 6 66 31 l26 31 0 220 c0 172 3 219 13 215 6 -3 74 -26 150 -52
l137 -47 0 -669 c0 -368 -3 -669 -6 -669 -3 0 -203 68 -443 151 -240 83 -462
160 -493 171 l-58 20 0 670 c0 368 4 668 8 666 5 -1 61 -21 125 -43z m1967
-353 l0 -399 -97 -6 c-425 -27 -761 -353 -799 -774 -7 -80 -8 -81 -79 -99
l-25 -6 0 669 0 669 493 171 c270 94 495 171 500 172 4 1 7 -178 7 -397z m95
-449 l29 -26 -69 8 c-39 4 -72 8 -73 10 -2 2 11 17 30 33 l33 30 5 139 5 138
5 -153 5 -154 30 -25z m3 -69 c406 -83 669 -479 586 -882 -107 -524 -713 -771
-1154 -472 -341 231 -432 699 -202 1037 172 253 475 378 770 317z"/>
<path d="M2065 1432 c-22 -11 -52 -32 -66 -48 -35 -39 -129 -209 -129 -234 0
-28 43 -54 68 -41 11 6 43 53 71 105 58 108 87 136 142 136 49 0 73 -23 133
-122 l46 -78 -35 0 c-28 0 -38 -5 -46 -24 -19 -42 1 -60 93 -84 129 -34 126
-36 157 85 26 101 26 99 -3 118 -29 19 -62 7 -75 -26 -6 -17 -16 -5 -62 72
-67 115 -109 149 -195 155 -45 4 -69 0 -99 -14z m45 -43 c-41 -16 -89 -69
-133 -146 -52 -92 -72 -96 -22 -5 64 116 110 162 165 161 8 0 4 -5 -10 -10z
m121 -5 c18 -9 51 -48 84 -99 65 -101 89 -120 119 -100 41 29 45 17 21 -63
-18 -58 -31 -63 -106 -40 -43 12 -49 27 -19 46 30 18 25 59 -16 127 -44 74
-80 113 -119 131 -20 9 -24 13 -12 14 10 0 32 -7 48 -16z"/>
<path d="M1740 1020 c-89 -24 -97 -28 -104 -52 -9 -35 11 -58 50 -58 l35 0
-19 -28 c-51 -71 -102 -184 -102 -225 0 -51 28 -113 66 -149 51 -48 92 -58
227 -58 107 0 126 2 140 18 22 24 21 45 -1 65 -15 14 -41 17 -141 17 l-123 0
-34 34 c-49 49 -46 81 18 190 50 86 52 89 61 63 12 -37 52 -46 79 -19 l20 20
-23 87 c-32 124 -36 126 -149 95z m105 -82 c8 -28 15 -58 15 -65 0 -15 -26
-18 -35 -3 -13 21 -45 9 -75 -27 -42 -51 -90 -150 -90 -185 0 -56 59 -130 116
-148 28 -8 28 -8 4 -9 -68 -2 -130 73 -130 158 0 45 7 66 41 125 51 89 60 129
30 148 -31 19 -26 35 17 46 79 21 90 17 107 -40z"/>
<path d="M2497 932 c-10 -10 -17 -24 -17 -31 0 -6 27 -58 60 -113 73 -123 76
-154 26 -204 l-34 -34 -108 0 c-106 0 -107 0 -89 20 34 38 -3 91 -54 75 -30
-9 -131 -121 -131 -145 0 -27 104 -138 137 -146 15 -4 31 0 43 11 24 22 25 43
3 67 -15 17 -12 18 91 18 117 0 161 12 210 58 66 62 82 152 42 237 -29 63
-105 188 -120 197 -19 13 -42 9 -59 -10z m92 -112 c63 -106 69 -123 60 -187
-10 -76 -69 -134 -131 -132 -22 1 -22 1 3 9 43 13 74 38 97 79 34 60 29 95
-28 194 -45 79 -57 107 -46 107 2 0 22 -32 45 -70z m-289 -253 c0 -26 24 -53
55 -59 20 -5 20 -5 0 -13 -34 -14 -55 -37 -55 -62 0 -12 -5 -23 -12 -23 -18 0
-88 71 -88 89 0 19 69 91 87 91 7 0 13 -11 13 -23z"/>
<path d="M965 2884 c-88 -31 -185 -64 -215 -74 -143 -47 -463 -160 -502 -177
-91 -41 -86 -84 16 -128 97 -42 140 -43 248 -5 166 59 732 271 766 287 71 34
66 80 -13 118 -94 44 -120 42 -300 -21z m268 -10 c42 -14 75 -30 71 -35 -3 -5
-11 -9 -18 -9 -7 0 -209 -74 -450 -164 l-436 -164 -87 30 c-49 16 -95 32 -103
34 -12 5 901 329 935 333 5 1 45 -11 88 -25z"/>
<path d="M1300 2779 c-74 -28 -202 -75 -285 -105 -150 -56 -186 -69 -260 -97
-22 -8 -67 -26 -100 -38 -70 -27 -125 -64 -125 -85 0 -39 136 -106 212 -106
33 1 238 71 558 192 91 35 200 75 242 91 136 49 164 82 111 130 -30 26 -151
69 -195 69 -12 -1 -84 -24 -158 -51z m267 -21 c51 -17 90 -35 86 -39 -5 -3
-26 -12 -48 -19 -22 -7 -224 -82 -448 -166 l-409 -152 -86 29 c-48 16 -94 32
-102 35 -14 5 869 342 900 344 8 0 56 -14 107 -32z"/>
<path d="M426 2388 c-13 -19 -16 -59 -16 -233 l0 -212 25 -23 c24 -22 28 -23
58 -11 67 28 89 25 136 -19 49 -44 70 -49 94 -22 15 16 17 47 17 221 l0 203
-28 28 c-20 19 -59 38 -129 59 -119 37 -137 38 -157 9z m157 -53 l116 -40 3
-212 c2 -117 0 -213 -3 -213 -3 0 -18 18 -35 39 -32 43 -72 71 -101 71 -10 0
-39 -11 -66 -25 l-47 -25 0 226 c0 124 4 224 8 222 5 -1 61 -21 125 -43z"/>
<path d="M2973 795 c-7 -16 -24 -74 -38 -128 -54 -203 -145 -345 -289 -453
-101 -76 -182 -112 -384 -170 -79 -22 -87 -34 -24 -34 156 0 380 105 514 241
142 145 245 371 236 521 -3 52 -3 53 -15 23z"/>
</g>
</svg>
