<?xml version="1.0" standalone="no"?>
<!DOCTYPE svg PUBLIC "-//W3C//DTD SVG 20010904//EN"
 "http://www.w3.org/TR/2001/REC-SVG-20010904/DTD/svg10.dtd">
<svg version="1.0" xmlns="http://www.w3.org/2000/svg"
 width="300.000000pt" height="300.000000pt" viewBox="0 0 300.000000 300.000000"
 preserveAspectRatio="xMidYMid meet">
<metadata>
Created by potrace 1.10, written by Peter Selinger 2001-2011
</metadata>
<g transform="translate(0.000000,300.000000) scale(0.100000,-0.100000)"
fill="#000000" stroke="none">
<path d="M412 2893 c-14 -13 -40 -102 -101 -343 -67 -266 -81 -339 -81 -400 0
-223 132 -434 327 -526 l82 -39 1 -542 0 -543 -30 0 c-35 0 -97 -29 -121 -56
-41 -47 -49 -80 -49 -208 0 -114 2 -126 19 -136 13 -6 146 -10 365 -10 417 0
386 -11 386 138 0 53 -5 114 -11 135 -20 74 -98 137 -169 137 l-30 0 0 543 0
543 38 13 c100 36 226 142 291 246 52 83 81 191 81 302 0 88 -7 125 -81 412
-44 174 -88 324 -96 334 -15 16 -47 17 -408 17 -360 0 -394 -1 -413 -17z m58
-41 c0 -11 -39 -47 -44 -41 -9 9 15 49 29 49 8 0 15 -4 15 -8z m161 -9 c-16
-28 -41 -57 -43 -52 -2 2 -13 19 -26 37 l-23 32 51 0 c46 0 50 -2 41 -17z
m247 -10 c-66 -72 -72 -104 -30 -154 l27 -34 -31 22 c-52 37 -57 48 -40 82 20
38 20 65 1 81 -27 22 -16 30 42 30 l57 0 -26 -27z m332 6 c19 -35 6 -42 -18
-10 -18 24 -19 31 -8 31 9 0 20 -9 26 -21z m-445 -78 c-17 -24 -24 -47 -21
-58 4 -10 53 -55 110 -101 l103 -82 -76 -154 c-42 -85 -80 -155 -85 -155 -4
-1 -6 5 -3 13 3 8 13 67 23 130 13 96 14 119 3 132 -7 9 -62 40 -122 70 -65
33 -107 60 -104 67 2 7 14 51 27 99 l23 87 71 3 c39 2 72 0 74 -4 2 -4 -9 -25
-23 -47z m-248 -65 c-16 -63 -27 -122 -24 -130 3 -8 57 -41 119 -72 62 -31
115 -58 116 -59 2 -2 -11 -116 -28 -254 -26 -203 -30 -254 -20 -266 15 -18 54
-20 68 -2 25 29 312 604 312 623 0 15 -31 46 -104 104 l-105 84 24 40 25 41
134 3 135 3 10 -38 c107 -413 141 -561 141 -622 0 -133 -47 -248 -142 -347
-276 -288 -752 -150 -844 243 -23 99 -15 159 67 478 l73 285 36 0 36 0 -29
-114z m71 -124 l23 -24 -23 7 c-36 11 -48 25 -47 54 0 24 1 25 12 7 7 -11 22
-31 35 -44z m397 -8 c25 -17 34 -57 15 -69 -5 -3 -10 2 -10 13 0 11 -9 31 -21
46 -24 30 -19 33 16 10z m-205 -127 c0 -18 -2 -17 -20 6 -11 14 -20 31 -20 38
0 8 7 6 20 -6 11 -10 20 -27 20 -38z m30 -323 c-41 -80 -79 -148 -84 -151 -11
-7 -3 102 15 221 12 79 12 79 27 50 8 -16 20 -32 25 -36 16 -10 47 10 65 42 9
16 19 27 21 24 3 -2 -29 -70 -69 -150z m-81 -500 c11 -3 9 -10 -9 -29 -13 -14
-26 -25 -29 -25 -5 0 -36 47 -49 72 -3 6 46 -4 87 -18z m247 -26 c-23 -46 -23
-46 -36 -22 -8 13 -17 24 -22 24 -4 0 -8 6 -8 14 0 10 75 37 87 31 1 0 -8 -22
-21 -47z m-66 -555 l0 -533 -90 0 -90 0 0 533 0 532 90 0 90 0 0 -532z m-180
-575 c0 -5 -20 -8 -45 -8 -25 0 -45 3 -45 6 0 3 10 19 21 36 l22 30 23 -29
c13 -15 23 -31 24 -35z m236 -6 c-26 -2 -50 -1 -53 2 -3 3 5 18 18 35 l24 30
30 -32 29 -32 -48 -3z m111 -66 c26 -22 28 -31 33 -110 l5 -86 -292 0 -293 0
0 76 c0 140 7 143 297 144 220 0 222 0 250 -24z m-547 -238 c0 -5 -10 -8 -22
-6 -17 2 -24 11 -26 33 l-4 30 26 -24 c14 -14 26 -29 26 -33z m630 22 c0 -26
-4 -30 -26 -30 l-26 0 24 29 c13 17 24 30 26 30 1 1 2 -12 2 -29z"/>
<path d="M1925 1934 c-259 -42 -467 -197 -575 -429 -198 -422 36 -917 489
-1037 105 -28 267 -27 374 1 131 34 229 92 332 196 102 102 144 167 188 292
29 82 31 97 32 228 0 153 -16 229 -75 345 -92 182 -277 332 -475 384 -61 17
-236 28 -290 20z m242 -105 c293 -63 512 -338 513 -642 0 -81 -29 -198 -72
-286 -78 -163 -249 -299 -433 -346 -76 -19 -224 -19 -299 0 -194 51 -351 175
-436 347 -242 492 191 1044 727 927z"/>
<path d="M1970 1688 c-36 -19 -59 -44 -117 -128 -73 -106 -85 -138 -59 -160
32 -26 57 -6 130 100 76 110 97 125 148 108 15 -6 41 -32 62 -63 20 -30 36
-56 36 -57 0 -2 -22 -1 -48 0 -66 5 -99 -26 -73 -67 10 -16 87 -29 178 -30 53
-1 64 2 73 19 12 23 3 194 -12 223 -13 25 -59 19 -74 -11 -11 -23 -11 -23 -33
13 -23 40 -87 74 -136 75 -17 0 -51 -10 -75 -22z m208 -95 c20 -14 27 -14 44
-4 31 19 39 2 36 -80 -3 -69 -5 -74 -27 -77 -12 -2 -34 -1 -47 2 l-24 6 21 29
21 28 -21 40 c-11 22 -33 56 -48 74 -31 37 -34 38 45 -18z"/>
<path d="M1575 1323 c-48 -5 -65 -18 -65 -48 0 -34 24 -48 75 -43 25 2 45 1
45 -1 0 -2 -18 -31 -41 -65 -39 -57 -41 -64 -37 -121 5 -74 33 -119 92 -146
34 -15 66 -19 184 -19 152 0 182 7 182 43 0 46 -9 49 -150 48 -75 -1 -147 3
-166 9 -51 17 -67 60 -42 115 l11 25 11 -23 c13 -26 57 -34 75 -14 18 22 27
212 11 232 -12 15 -83 18 -185 8z m150 -103 c0 -89 -7 -103 -40 -88 -22 10
-29 8 -55 -17 -38 -36 -38 -29 1 47 l31 61 -21 28 c-24 32 -16 39 44 36 l40
-2 0 -65z"/>
<path d="M2326 1308 c-18 -25 -18 -24 65 -150 32 -50 59 -98 59 -109 0 -10
-11 -30 -24 -46 -21 -24 -32 -28 -97 -31 l-74 -5 33 31 c17 16 32 37 32 44 0
18 -32 48 -51 48 -15 0 -158 -121 -172 -145 -12 -22 2 -42 79 -110 79 -69 115
-81 134 -46 15 29 13 39 -15 63 -14 12 -25 24 -25 27 0 3 35 6 78 6 56 0 85 5
107 19 72 42 105 148 70 217 -10 19 -44 73 -77 122 -63 94 -91 109 -122 65z
m-76 -304 c-8 -21 -6 -29 16 -50 l25 -26 -26 -24 c-16 -15 -24 -31 -21 -39 21
-52 21 -51 0 -36 -45 34 -94 86 -94 101 0 14 86 99 102 100 4 0 3 -11 -2 -26z"/>
</g>
</svg>
