<?xml version="1.0" standalone="no"?>
<!DOCTYPE svg PUBLIC "-//W3C//DTD SVG 20010904//EN"
 "http://www.w3.org/TR/2001/REC-SVG-20010904/DTD/svg10.dtd">
<svg version="1.0" xmlns="http://www.w3.org/2000/svg"
 width="300.000000pt" height="300.000000pt" viewBox="0 0 300.000000 300.000000"
 preserveAspectRatio="xMidYMid meet">
<metadata>
Created by potrace 1.10, written by Peter Selinger 2001-2011
</metadata>
<g transform="translate(0.000000,300.000000) scale(0.100000,-0.100000)"
fill="#000000" stroke="none">
<path d="M623 2990 c-12 -5 -25 -21 -29 -35 -5 -21 4 -40 55 -106 33 -44 61
-82 61 -85 0 -3 -73 -4 -161 -3 -148 2 -163 1 -175 -16 -19 -26 -17 -59 4 -78
14 -12 37 -17 88 -17 l69 0 -1 -75 -2 -75 -103 -83 c-57 -46 -116 -102 -131
-124 -60 -91 -59 -62 -56 -1069 3 -919 3 -919 25 -966 31 -68 168 -244 194
-251 13 -4 24 -5 26 -3 1 1 -34 52 -79 112 -137 185 -123 52 -123 1134 0 862
1 938 17 971 25 53 60 92 147 161 117 94 121 100 121 189 0 96 -17 116 -100
121 -30 2 -55 8 -55 13 0 6 58 12 143 15 136 5 145 6 163 28 17 22 18 26 3 54
-9 17 -31 52 -50 78 -19 26 -34 52 -34 58 0 34 27 12 93 -75 118 -155 42 -138
603 -141 418 -2 484 -5 484 -17 0 -11 -13 -15 -53 -15 -80 0 -97 -22 -97 -125
l0 -79 48 -42 c26 -23 76 -67 112 -96 44 -37 74 -72 93 -109 l28 -54 6 -300
c7 -346 4 -338 96 -350 229 -30 422 -149 542 -335 223 -345 131 -796 -208
-1029 -75 -51 -162 -87 -303 -123 l-129 -33 67 -3 c89 -4 185 20 293 73 111
54 203 129 277 226 89 117 136 229 158 376 51 330 -144 683 -454 823 -72 33
-211 70 -263 70 l-32 0 -3 303 -3 302 -33 68 c-30 61 -46 78 -148 159 l-114
92 0 73 0 73 73 0 c80 0 107 15 107 58 0 22 -24 52 -43 52 -7 1 -229 0 -494 0
l-482 -1 -87 116 c-47 63 -90 115 -94 115 -5 0 -14 2 -22 4 -7 3 -23 1 -35 -4z"/>
<path d="M635 2665 c-36 -35 -36 -115 0 -150 l24 -25 461 0 461 0 24 26 c40
43 27 150 -20 168 -9 3 -221 6 -471 6 l-455 0 -24 -25z m955 -75 l0 -60 -470
0 -470 0 0 60 0 60 470 0 470 0 0 -60z"/>
<path d="M595 2445 c-16 -9 -73 -50 -124 -93 -123 -100 -151 -149 -151 -264 0
-70 3 -82 25 -103 l24 -25 751 0 751 0 24 26 c21 23 25 37 25 94 0 119 -33
176 -163 281 -135 108 -76 99 -639 99 -418 0 -498 -3 -523 -15z m1142 -120
c126 -104 142 -133 143 -247 l0 -78 -760 0 -760 0 0 78 c1 124 15 146 199 294
l53 43 511 -2 510 -2 104 -86z"/>
<path d="M346 1909 l-26 -21 2 -590 3 -591 27 -20 28 -21 106 27 c220 54 409
178 482 316 51 95 62 137 77 297 16 178 42 258 117 358 43 57 71 82 191 170
27 20 37 34 35 49 -6 45 -24 47 -534 47 -472 0 -482 0 -508 -21z m979 -51
c-36 -19 -92 -65 -140 -113 -126 -127 -164 -222 -184 -466 -11 -146 -36 -220
-103 -306 -79 -103 -237 -194 -416 -239 -52 -13 -101 -24 -108 -24 -12 0 -14
97 -14 590 l0 590 513 0 512 -1 -60 -31z"/>
<path d="M1760 1918 c-142 -16 -304 -69 -411 -134 -70 -42 -171 -148 -205
-215 -36 -72 -64 -190 -64 -273 -1 -210 -84 -368 -267 -503 -88 -65 -100 -83
-72 -109 19 -17 42 -19 225 -22 260 -4 248 -11 257 164 6 130 24 200 79 311
92 183 281 331 492 382 46 12 88 29 102 42 23 22 24 27 24 168 -1 198 -8 207
-160 189z m120 -188 l0 -160 -34 0 c-50 0 -160 -36 -246 -81 -256 -132 -420
-403 -420 -691 l0 -98 -221 0 c-144 0 -218 3 -214 10 3 6 11 10 17 10 26 0
143 87 197 147 103 111 160 261 161 418 1 294 173 487 503 565 70 17 179 34
240 39 15 1 17 -13 17 -159z"/>
<path d="M1864 1500 c-374 -55 -658 -426 -604 -792 24 -165 80 -283 189 -400
135 -144 294 -218 486 -226 137 -5 227 13 339 67 248 121 405 369 406 643 1
430 -391 770 -816 708z m273 -56 c184 -48 344 -177 430 -347 97 -193 98 -408
2 -605 -33 -68 -58 -102 -128 -172 -70 -72 -101 -95 -171 -128 -107 -52 -191
-72 -301 -72 -309 0 -575 207 -655 510 -23 86 -23 244 0 330 58 217 236 404
451 474 114 37 255 41 372 10z"/>
<path d="M1884 1292 c-76 -48 -115 -130 -78 -166 27 -28 58 -19 101 29 23 25
49 45 61 45 24 0 56 -37 128 -149 47 -72 51 -83 32 -77 -65 18 -76 18 -97 -3
-12 -12 -21 -29 -21 -39 0 -39 25 -53 145 -82 106 -25 123 -27 142 -15 24 16
24 16 52 138 26 109 26 129 3 150 -41 37 -80 17 -96 -47 l-12 -47 -68 110
c-83 137 -115 164 -200 169 -47 2 -68 -1 -92 -16z m154 -42 c20 -12 58 -60 97
-120 36 -54 75 -105 87 -111 20 -11 26 -8 59 31 22 25 39 38 43 31 10 -15 -33
-188 -50 -202 -11 -9 -35 -7 -111 12 -103 26 -134 49 -64 49 32 0 44 5 56 24
15 23 15 27 -6 68 -45 88 -109 175 -143 193 -29 16 -38 17 -64 6 -16 -7 -42
-26 -58 -42 -32 -34 -44 -36 -44 -10 0 21 44 69 75 82 36 14 89 9 123 -11z"/>
<path d="M1601 1000 c-115 -28 -141 -43 -141 -82 0 -10 9 -27 21 -39 21 -21
32 -21 97 -3 19 5 13 -9 -43 -97 -91 -144 -101 -191 -54 -267 28 -47 88 -72
174 -72 80 0 95 9 95 55 0 43 -16 55 -77 55 -64 0 -103 16 -103 43 0 12 28 68
62 125 l63 105 10 -40 c12 -50 31 -73 59 -73 26 0 40 9 54 35 14 28 -39 254
-64 272 -22 16 -16 17 -153 -17z m158 -123 c17 -70 21 -101 13 -109 -7 -7 -18
1 -36 31 -28 43 -36 47 -66 31 -21 -11 -116 -157 -132 -201 -20 -58 27 -109
109 -119 54 -6 57 -24 6 -28 -94 -8 -153 37 -153 118 0 39 9 62 60 146 33 54
60 105 60 113 0 26 -32 51 -67 51 -22 0 -33 5 -33 14 0 10 27 21 83 34 131 32
128 34 156 -81z"/>
<path d="M2344 715 c-16 -25 -16 -28 6 -76 22 -47 23 -51 7 -67 -15 -14 -41
-18 -155 -20 l-137 -3 33 33 c19 20 32 44 32 59 0 30 -28 59 -56 59 -25 0
-204 -179 -204 -204 0 -21 163 -193 192 -202 11 -3 30 2 43 10 35 23 33 62 -7
103 l-32 33 145 0 c132 0 150 2 189 23 73 39 99 121 65 204 -22 52 -44 73 -76
73 -20 0 -34 -8 -45 -25z m82 -60 c20 -48 18 -88 -8 -120 -34 -44 -75 -55
-202 -55 -108 0 -117 -2 -143 -24 -28 -25 -28 -25 -10 -56 19 -36 22 -60 6
-60 -18 0 -149 135 -149 155 0 20 129 155 148 155 17 0 15 -26 -4 -55 -38 -58
8 -85 147 -85 173 0 209 33 173 158 -11 38 25 27 42 -13z"/>
<path d="M345 605 c-24 -23 -25 -30 -25 -143 0 -144 10 -176 83 -274 93 -126
24 -113 601 -113 275 0 513 3 528 8 29 8 44 38 31 62 -5 8 -37 38 -71 67 -88
75 -147 150 -193 248 -23 47 -48 99 -56 116 -8 18 -26 37 -39 43 -17 7 -153
11 -430 11 l-405 0 -24 -25z m869 -47 c9 -49 61 -154 110 -222 49 -68 144
-162 194 -191 37 -22 43 -40 10 -31 -13 3 -249 6 -524 6 l-502 0 -57 76 c-80
107 -85 122 -85 269 l0 125 424 0 424 0 6 -32z"/>
</g>
</svg>
