<?xml version="1.0" standalone="no"?>
<!DOCTYPE svg PUBLIC "-//W3C//DTD SVG 20010904//EN"
 "http://www.w3.org/TR/2001/REC-SVG-20010904/DTD/svg10.dtd">
<svg version="1.0" xmlns="http://www.w3.org/2000/svg"
 width="300.000000pt" height="300.000000pt" viewBox="0 0 300.000000 300.000000"
 preserveAspectRatio="xMidYMid meet">
<metadata>
Created by potrace 1.10, written by Peter Selinger 2001-2011
</metadata>
<g transform="translate(0.000000,300.000000) scale(0.100000,-0.100000)"
fill="#000000" stroke="none">
<path d="M644 2961 c-21 -16 -170 -161 -331 -322 -282 -284 -310 -319 -301
-365 2 -13 10 -8 30 22 30 43 625 636 673 671 l30 22 -31 0 c-19 1 -46 -10
-70 -28z"/>
<path d="M1898 2944 l52 -46 -2 -216 -2 -217 -6 205 c-5 217 -9 233 -57 258
-16 9 -175 12 -577 12 l-555 0 -20 -26 c-20 -25 -21 -39 -21 -249 0 -265 -4
-307 -37 -339 -24 -24 -80 -39 -89 -24 -3 4 5 8 18 8 26 1 60 26 77 57 7 14
11 92 11 230 0 225 -6 253 -53 253 -26 0 -475 -443 -484 -478 -8 -31 22 -62
61 -62 24 0 27 -3 16 -10 -8 -5 -40 -10 -71 -10 -45 0 -60 -4 -77 -23 l-22
-23 0 -953 c0 -1048 -3 -992 62 -1024 32 -16 32 -17 7 -17 -27 0 -59 25 -96
75 l-22 30 -1 -30 c0 -42 31 -89 73 -108 32 -15 105 -17 776 -17 l741 0 67
-47 c86 -58 175 -99 271 -124 105 -27 319 -27 423 0 298 76 534 312 610 609
21 85 27 201 7 168 -6 -11 -21 -59 -34 -106 -49 -188 -116 -314 -230 -425 -96
-95 -266 -189 -379 -209 -22 -4 -71 -17 -109 -28 -72 -22 -91 -20 -201 13 -16
5 -56 16 -88 25 -32 9 -57 18 -54 20 2 2 26 -3 53 -12 79 -25 285 -30 380 -9
311 68 564 335 614 648 47 293 -68 575 -313 764 -57 44 -204 120 -245 126 -12
2 -25 7 -29 11 -13 14 46 -3 124 -36 154 -63 279 -170 367 -310 51 -82 73
-138 107 -269 12 -46 27 -95 35 -109 12 -24 13 -22 14 31 0 31 -9 90 -19 131
-91 357 -401 612 -771 634 -52 4 -119 2 -147 -3 l-53 -10 0 599 c0 580 -1 600
-20 638 -22 43 -63 70 -107 70 -27 0 -26 -2 25 -46z m-14 -60 c14 -14 16 -84
16 -618 l0 -603 -70 -27 c-300 -118 -508 -411 -527 -741 -11 -205 47 -387 183
-573 l16 -22 -685 0 c-610 0 -687 2 -701 16 -14 14 -16 116 -16 975 l0 959
268 0 c303 0 318 3 359 76 22 38 23 48 23 307 l0 267 559 0 c495 0 561 -2 575
-16z m-1234 -278 c0 -191 -2 -227 -16 -240 -13 -14 -49 -16 -238 -16 l-223 0
236 239 c130 131 237 239 239 240 1 0 2 -100 2 -223z m1332 -933 c12 -13 28
-23 37 -23 32 0 -7 -19 -82 -39 -259 -70 -468 -279 -552 -551 -10 -32 -19
-105 -22 -175 -4 -100 -2 -135 16 -207 38 -160 109 -286 222 -393 83 -79 119
-106 204 -150 39 -20 59 -33 45 -29 -35 9 -90 38 -174 90 -65 41 -76 44 -138
44 -37 0 -70 5 -73 10 -3 6 -1 10 6 10 15 0 59 40 59 53 0 6 -22 44 -48 86
-58 92 -73 124 -104 221 -20 65 -23 96 -23 225 0 83 3 164 7 180 40 175 136
333 266 441 37 31 113 78 168 105 156 77 148 60 154 317 l5 217 3 -205 c2
-193 4 -205 24 -227z m316 -89 c406 -83 669 -479 586 -882 -107 -524 -713
-771 -1154 -472 -341 231 -432 699 -202 1037 172 253 475 378 770 317z"/>
<path d="M2065 1432 c-22 -11 -52 -32 -66 -48 -35 -39 -129 -209 -129 -234 0
-28 43 -54 68 -41 11 6 43 53 71 105 55 103 88 136 133 136 53 0 83 -25 136
-114 l51 -86 -35 0 c-27 0 -37 -5 -45 -24 -19 -42 1 -60 93 -84 129 -34 126
-36 157 85 26 101 26 99 -3 118 -29 19 -62 7 -75 -26 -6 -17 -16 -5 -62 72
-67 115 -109 149 -195 155 -45 4 -69 0 -99 -14z m45 -43 c-41 -16 -89 -69
-133 -146 -52 -92 -72 -96 -22 -5 64 116 110 162 165 161 8 0 4 -5 -10 -10z
m121 -5 c18 -9 51 -48 84 -99 65 -101 89 -120 119 -100 41 29 45 17 21 -63
-18 -58 -31 -63 -106 -40 -43 12 -49 27 -19 46 30 19 25 58 -19 131 -43 72
-77 109 -119 127 -19 9 -22 13 -9 13 10 1 32 -6 48 -15z"/>
<path d="M1740 1020 c-89 -24 -97 -28 -104 -52 -9 -35 11 -58 50 -58 l35 0
-19 -28 c-51 -71 -102 -184 -102 -225 0 -51 28 -113 66 -149 51 -48 92 -58
227 -58 107 0 126 2 140 18 22 24 21 45 -1 65 -15 14 -41 17 -141 17 l-123 0
-34 34 c-49 49 -46 81 18 190 50 86 52 89 61 63 12 -37 52 -46 79 -19 l20 20
-23 87 c-32 124 -36 126 -149 95z m105 -82 c8 -28 15 -58 15 -65 0 -15 -26
-18 -35 -3 -13 21 -45 9 -75 -27 -42 -51 -90 -150 -90 -185 0 -56 59 -130 116
-148 28 -8 28 -8 4 -9 -68 -2 -130 73 -130 158 0 45 7 66 41 125 51 89 60 129
30 148 -31 19 -26 35 17 46 79 21 90 17 107 -40z"/>
<path d="M2497 932 c-10 -10 -17 -24 -17 -31 0 -6 27 -58 60 -113 73 -123 76
-154 26 -204 l-34 -34 -108 0 c-106 0 -107 0 -89 20 34 38 -3 91 -54 75 -30
-9 -131 -121 -131 -145 0 -27 104 -138 137 -146 15 -4 31 0 43 11 24 22 25 43
3 67 -15 17 -12 18 91 18 117 0 161 12 210 58 66 62 82 152 42 237 -29 63
-105 188 -120 197 -19 13 -42 9 -59 -10z m92 -112 c63 -106 69 -123 60 -187
-10 -76 -69 -134 -131 -132 -22 1 -22 1 3 9 43 13 74 38 97 79 34 60 29 95
-28 194 -45 79 -57 107 -46 107 2 0 22 -32 45 -70z m-289 -253 c0 -26 24 -53
55 -59 20 -5 20 -5 0 -13 -34 -14 -55 -37 -55 -62 0 -12 -5 -23 -12 -23 -18 0
-88 71 -88 89 0 19 69 91 87 91 7 0 13 -11 13 -23z"/>
</g>
</svg>
