<?xml version="1.0" standalone="no"?>
<!DOCTYPE svg PUBLIC "-//W3C//DTD SVG 20010904//EN"
 "http://www.w3.org/TR/2001/REC-SVG-20010904/DTD/svg10.dtd">
<svg version="1.0" xmlns="http://www.w3.org/2000/svg"
 width="300.000000pt" height="300.000000pt" viewBox="0 0 300.000000 300.000000"
 preserveAspectRatio="xMidYMid meet">
<metadata>
Created by potrace 1.10, written by Peter Selinger 2001-2011
</metadata>
<g transform="translate(0.000000,300.000000) scale(0.100000,-0.100000)"
fill="#000000" stroke="none">
<path d="M833 2895 c-56 -24 -67 -53 -74 -199 -4 -72 -12 -161 -19 -198 l-12
-67 -151 -3 -152 -3 0 -125 0 -125 33 -3 c29 -3 33 -6 28 -25 -3 -12 -6 -25
-6 -29 0 -4 -17 -15 -37 -25 -65 -30 -149 -123 -191 -210 l-37 -78 -3 -364 -3
-363 25 -64 c33 -81 33 -138 1 -216 -24 -59 -25 -70 -25 -272 0 -116 4 -226
10 -245 16 -56 52 -100 104 -126 49 -25 53 -25 315 -25 155 0 282 5 304 11 44
12 101 59 124 103 11 20 18 62 20 121 l2 90 285 3 285 2 7 -22 c12 -40 80
-131 135 -184 95 -89 199 -138 328 -155 298 -37 582 180 645 493 20 97 20 159
0 256 -38 190 -166 360 -329 436 -44 21 -87 41 -95 45 -11 6 -21 66 -41 242
-37 319 -50 382 -124 609 -78 241 -93 313 -109 505 -7 83 -17 160 -24 171 -6
12 -27 29 -46 38 -43 20 -164 21 -211 2 -59 -25 -65 -50 -65 -270 l0 -194 -42
-20 c-71 -34 -156 -45 -310 -40 -121 4 -152 8 -203 29 l-60 24 -5 201 c-6 223
-11 243 -75 270 -43 18 -160 18 -202 -1z m195 -68 c7 -8 12 -106 14 -262 3
-275 4 -279 70 -344 133 -133 449 -141 597 -15 78 67 81 80 81 354 0 147 4
249 10 261 9 16 22 19 95 19 59 0 88 -4 98 -14 10 -10 16 -51 20 -138 7 -160
33 -283 107 -514 34 -103 68 -219 76 -258 12 -57 73 -520 74 -561 0 -6 -35
-10 -83 -11 -69 -1 -148 -16 -210 -40 -12 -4 -15 15 -19 103 -5 124 -23 171
-83 221 -60 49 -85 52 -447 52 l-334 0 -11 74 c-18 128 -93 252 -189 314 -67
42 -84 59 -84 81 0 15 8 21 33 23 l32 3 0 125 0 125 -38 5 c-43 6 -42 1 -28
100 5 41 13 122 17 180 3 58 11 111 16 118 14 17 172 17 186 -1z m-210 -529
l3 -68 -171 0 -170 0 0 70 0 70 168 -2 167 -3 3 -67z m338 43 c75 -29 214 -45
319 -37 100 8 211 30 232 48 7 6 16 8 20 5 12 -13 -21 -69 -60 -102 -62 -53
-123 -70 -257 -70 -103 0 -121 3 -171 26 -61 29 -113 78 -128 122 -6 15 -9 27
-8 27 1 0 25 -9 53 -19z m-402 -225 c10 -46 14 -51 66 -77 86 -44 170 -152
195 -252 l7 -27 -371 0 c-424 0 -392 -9 -343 95 38 78 103 149 172 183 48 25
55 33 62 68 14 68 9 65 110 62 l92 -3 10 -49z m266 -666 l0 -240 -371 2 -370
3 -2 238 -2 237 373 0 372 0 0 -240z m790 144 c19 -11 45 -35 57 -54 21 -30
23 -45 23 -159 l0 -127 -29 -17 c-57 -34 -153 -148 -192 -231 -36 -75 -68
-190 -69 -243 l0 -23 -256 0 -255 0 -21 48 c-34 74 -35 146 -4 223 26 65 26
68 26 338 l0 272 343 -3 c324 -3 344 -4 377 -24z m509 -329 c184 -49 335 -203
386 -395 19 -71 19 -229 0 -300 -51 -192 -202 -346 -386 -395 -71 -19 -180
-19 -254 0 -176 46 -325 198 -381 390 -23 80 -23 230 0 309 56 191 204 344
376 390 71 19 190 20 259 1z m-1299 -150 c0 -19 -11 -68 -25 -109 -31 -93 -31
-109 1 -203 24 -74 25 -82 22 -306 l-3 -229 -37 -34 -38 -34 -286 0 c-397 0
-374 -19 -374 314 0 207 2 230 21 278 31 75 29 156 -4 237 -27 64 -33 101 -20
114 3 4 172 7 375 7 l368 0 0 -35z m590 -497 c6 -35 12 -70 13 -78 2 -13 -34
-15 -267 -15 l-270 0 2 75 c1 41 1 76 2 78 0 1 114 2 254 2 l254 0 12 -62z"/>
<path d="M2146 1107 c-52 -30 -145 -179 -126 -202 23 -28 40 -16 91 64 71 113
127 129 189 53 40 -49 39 -64 -6 -60 -40 3 -68 -22 -48 -42 17 -17 184 -54
195 -43 13 13 43 169 35 188 -3 10 -15 15 -28 13 -17 -2 -25 -13 -31 -40 -5
-21 -13 -38 -17 -38 -4 0 -25 23 -45 51 -57 79 -133 100 -209 56z m272 -162
c-3 -22 -35 -31 -57 -16 -21 14 3 39 35 37 19 -1 24 -6 22 -21z"/>
<path d="M1865 791 c-64 -22 -81 -32 -83 -49 -4 -28 20 -38 63 -25 19 6 36 9
39 6 2 -3 -7 -28 -20 -56 -30 -66 -31 -124 -1 -167 43 -64 67 -74 181 -78 100
-4 104 -3 111 18 4 12 3 26 -2 31 -4 4 -52 11 -106 15 -92 7 -99 9 -122 36
-30 35 -31 59 -5 116 23 50 34 53 46 10 11 -37 49 -52 60 -23 7 18 -31 162
-48 183 -14 16 -19 15 -113 -17z m89 -37 c17 -45 -17 -63 -43 -23 -11 18 -11
23 1 30 20 13 35 11 42 -7z"/>
<path d="M2472 778 c-17 -17 -16 -21 28 -99 48 -84 51 -125 15 -161 -24 -24
-107 -44 -128 -31 -4 2 4 18 17 34 29 34 25 59 -9 59 -26 0 -135 -112 -135
-139 0 -23 126 -133 148 -129 27 5 26 41 -3 68 -14 13 -25 27 -25 30 0 4 27
10 60 13 103 9 164 67 164 157 0 35 -10 63 -45 125 -45 80 -64 96 -87 73z
m-105 -339 c-14 -23 -45 -25 -54 -4 -3 9 3 25 12 35 17 19 20 19 36 4 15 -13
16 -20 6 -35z"/>
</g>
</svg>
