<?xml version="1.0" standalone="no"?>
<!DOCTYPE svg PUBLIC "-//W3C//DTD SVG 20010904//EN"
 "http://www.w3.org/TR/2001/REC-SVG-20010904/DTD/svg10.dtd">
<svg version="1.0" xmlns="http://www.w3.org/2000/svg"
 width="300.000000pt" height="300.000000pt" viewBox="0 0 300.000000 300.000000"
 preserveAspectRatio="xMidYMid meet">
<metadata>
Created by potrace 1.10, written by Peter Selinger 2001-2011
</metadata>
<g transform="translate(0.000000,300.000000) scale(0.100000,-0.100000)"
fill="#000000" stroke="none">
<path d="M690 2509 c-114 -22 -229 -119 -270 -227 -23 -59 -38 -217 -26 -266
8 -33 39 -50 65 -37 16 9 19 26 23 124 3 90 9 122 26 158 28 58 82 112 141
141 l46 23 589 3 c405 2 594 6 603 14 18 15 16 42 -5 61 -17 15 -71 17 -583
16 -310 -1 -584 -5 -609 -10z"/>
<path d="M2018 2503 c-21 -23 -23 -47 -5 -61 6 -5 66 -12 132 -14 138 -5 186
-21 247 -83 72 -73 82 -109 86 -297 l4 -168 -51 0 -51 0 0 130 c0 87 -5 141
-14 163 -16 39 -76 94 -114 104 -35 10 -1509 10 -1544 0 -38 -10 -98 -65 -114
-104 -9 -22 -14 -76 -14 -163 l0 -130 -147 0 c-164 0 -184 -6 -220 -59 -22
-32 -23 -43 -23 -213 0 -206 6 -224 75 -258 37 -18 63 -20 253 -20 l212 0 0
-260 0 -259 -74 37 -75 37 0 166 c-1 173 -5 189 -46 189 -42 0 -45 -15 -45
-211 0 -137 3 -189 13 -197 6 -5 69 -40 139 -77 l127 -66 120 61 120 61 116
-60 116 -61 120 60 119 60 118 -59 c117 -59 119 -59 151 -44 31 15 33 15 48
-8 30 -44 115 -117 172 -147 89 -48 164 -65 271 -65 265 1 490 175 555 428 18
71 20 156 3 173 -34 34 -78 -1 -78 -62 0 -170 -128 -348 -299 -415 -259 -103
-542 24 -631 284 -107 310 124 634 450 635 179 0 345 -99 428 -256 17 -34 39
-65 48 -68 25 -10 54 12 54 40 0 42 -61 144 -121 205 -142 143 -355 200 -553
149 -97 -25 -160 -59 -235 -127 l-59 -53 -742 0 c-492 0 -748 3 -761 10 -18
10 -19 23 -19 173 0 114 4 167 12 175 9 9 95 12 326 12 184 0 321 4 331 10 25
13 33 37 21 61 -10 17 -23 19 -155 19 l-145 0 0 126 c0 71 5 134 11 146 26 48
30 48 799 48 769 0 773 0 799 -48 6 -12 11 -75 11 -146 l0 -126 -593 0 c-448
0 -596 -3 -605 -12 -17 -17 -15 -44 4 -62 14 -14 99 -16 788 -16 587 0 775 -3
784 -12 8 -8 12 -49 12 -119 0 -113 9 -139 49 -139 35 0 41 21 41 146 0 109
-2 124 -23 155 -30 44 -60 59 -124 59 l-51 0 -4 173 c-5 216 -20 260 -112 353
-84 83 -141 105 -301 111 -110 5 -121 4 -137 -14z m-1369 -635 l24 -28 -47 0
-47 0 21 31 c12 16 23 29 24 27 0 -2 12 -15 25 -30z m1711 2 l21 -30 -46 0
-47 0 24 29 c13 17 24 30 25 30 1 1 11 -12 23 -29z m197 -26 c-3 -3 -22 -4
-42 -2 l-37 3 22 28 22 27 20 -25 c11 -14 18 -28 15 -31z m-737 -489 c-30 -44
-50 -57 -50 -33 0 6 -10 22 -22 35 l-21 23 39 0 c21 0 46 5 54 10 30 20 30 9
0 -35z m-1010 18 c-1 -12 -26 -43 -35 -43 -11 0 -45 31 -45 42 0 4 18 8 40 8
22 0 40 -3 40 -7z m240 -1 c0 -5 -11 -19 -24 -31 l-24 -22 -22 30 -21 31 45 0
c25 0 46 -4 46 -8z m234 -4 c-4 -7 -14 -21 -22 -31 -15 -16 -17 -16 -39 5 -33
31 -29 38 23 38 33 0 43 -3 38 -12z m236 6 c0 -3 -8 -17 -19 -30 l-18 -23 -22
23 c-29 31 -27 36 19 36 22 0 40 -3 40 -6z m-560 -267 l0 -223 -72 -35 -73
-36 0 258 0 259 73 0 72 0 0 -223z m240 -37 l0 -259 -72 39 -73 39 -3 221 -2
220 75 0 75 0 0 -260z m240 41 l0 -220 -75 -39 -75 -39 0 258 0 259 75 0 75 0
0 -219z m294 202 c-27 -63 -54 -157 -60 -212 -8 -75 8 -184 38 -253 11 -27 18
-51 15 -55 -3 -3 -50 17 -103 45 l-97 49 -1 222 -1 221 109 0 c99 0 108 -1
100 -17z m-707 -442 l22 -28 -40 1 c-21 0 -39 2 -39 4 0 3 33 50 36 52 0 0 10
-13 21 -29z m480 -8 c13 -19 12 -20 -26 -20 -40 0 -42 4 -18 35 13 16 27 11
44 -15z m-215 -77 c21 -15 20 -15 -14 -32 -32 -15 -37 -15 -65 0 l-31 15 32
34 c29 32 32 33 44 16 7 -10 22 -25 34 -33z m-493 19 c13 -14 28 -25 35 -25 6
0 -2 -9 -19 -20 -30 -21 -66 -20 -92 2 -10 8 -7 17 15 38 15 15 29 28 32 29 3
0 16 -11 29 -24z m1005 -33 c24 -38 25 -42 7 -33 -11 6 -36 11 -56 11 l-36 0
28 35 c15 19 28 33 29 32 1 -1 13 -21 28 -45z"/>
<path d="M2185 1421 c-43 -19 -115 -92 -115 -115 0 -20 28 -46 50 -46 10 0 30
15 45 33 60 71 116 77 178 16 l42 -41 -44 6 c-51 8 -71 -5 -71 -45 0 -24 5
-30 38 -38 20 -6 72 -14 114 -17 75 -7 77 -6 87 17 14 36 33 173 25 192 -17
45 -84 25 -84 -26 l0 -32 -32 39 c-58 71 -152 94 -233 57z m228 -100 c17 -14
21 -14 49 2 l31 18 -6 -52 c-8 -70 -20 -82 -71 -73 -23 3 -42 7 -44 9 -1 1 5
16 15 33 17 30 17 32 -1 63 -19 33 -11 33 27 0z"/>
<path d="M1936 1214 c-38 -8 -75 -19 -82 -25 -20 -16 -17 -43 5 -63 16 -15 25
-16 58 -7 21 6 41 11 45 11 4 0 -7 -27 -24 -60 -72 -140 -8 -287 135 -306 53
-8 77 5 77 40 0 29 -18 46 -47 46 -71 0 -122 69 -103 138 5 20 14 44 20 52 8
12 10 10 10 -10 0 -32 17 -50 46 -50 43 0 47 21 29 127 -9 54 -21 103 -27 110
-13 16 -51 15 -142 -3z m113 -43 c14 -25 26 -131 16 -131 -5 0 -16 7 -25 15
-15 14 -20 13 -45 -7 l-28 -22 7 24 c19 62 18 71 -4 95 -24 26 -22 28 25 38
37 9 44 7 54 -12z"/>
<path d="M2496 1124 c-20 -19 -20 -32 -1 -77 41 -98 -11 -177 -117 -177 l-32
0 33 34 c36 38 37 61 4 83 -22 15 -26 12 -103 -63 -44 -42 -80 -85 -80 -93 0
-21 143 -171 162 -171 18 0 48 31 48 50 0 8 -14 29 -31 46 l-31 32 54 0 c108
-1 187 70 196 176 5 60 -9 112 -39 150 -23 30 -41 33 -63 10z m-161 -225 c-5
-14 0 -28 16 -45 l22 -24 -23 -25 c-14 -15 -21 -31 -17 -45 3 -11 2 -20 -1
-20 -12 0 -82 74 -82 86 0 13 73 94 85 94 3 0 3 -9 0 -21z"/>
</g>
</svg>
